<?xml version="1.0" encoding="utf-8"?>
<!-- Generator: Adobe Illustrator 16.0.0, SVG Export Plug-In . SVG Version: 6.00 Build 0)  -->
<!DOCTYPE svg PUBLIC "-//W3C//DTD SVG 1.1//EN" "http://www.w3.org/Graphics/SVG/1.1/DTD/svg11.dtd">
<svg version="1.1" id="Layer_1" xmlns="http://www.w3.org/2000/svg" xmlns:xlink="http://www.w3.org/1999/xlink" x="0px" y="0px"
	 width="80.21px" height="13.797px" viewBox="0 0 80.21 13.797" enable-background="new 0 0 80.21 13.797" xml:space="preserve">
<path d="M20.904,7.916l0.132,0.579h0.044l0.124-0.564l2.322-7.844h2.256L22.157,10.75H19.96L16.341,0.086h2.256L20.904,7.916z"/>
<path d="M31.81,10.75c-0.078-0.181-0.146-0.371-0.202-0.571s-0.097-0.405-0.12-0.615c-0.221,0.386-0.51,0.706-0.868,0.959
	c-0.359,0.254-0.788,0.381-1.286,0.381c-0.83,0-1.469-0.213-1.918-0.641c-0.449-0.427-0.674-1.009-0.674-1.747
	c0-0.776,0.299-1.378,0.896-1.805s1.471-0.641,2.619-0.641h1.193V5.44c0-0.381-0.1-0.676-0.301-0.886
	c-0.199-0.21-0.495-0.315-0.886-0.315c-0.347,0-0.614,0.084-0.802,0.252c-0.188,0.169-0.282,0.402-0.282,0.7l-2.065-0.007
	L27.106,5.14c-0.033-0.669,0.257-1.246,0.872-1.732c0.615-0.485,1.423-0.729,2.425-0.729c0.947,0,1.716,0.241,2.307,0.722
	s0.887,1.166,0.887,2.054v3.274c0,0.371,0.027,0.72,0.084,1.047c0.056,0.327,0.145,0.652,0.268,0.974H31.81z M29.854,9.322
	c0.376,0,0.71-0.093,1.003-0.278s0.491-0.4,0.594-0.645V7.278h-1.193c-0.455,0-0.799,0.113-1.033,0.341
	c-0.234,0.227-0.352,0.501-0.352,0.824c0,0.264,0.088,0.476,0.264,0.637S29.551,9.322,29.854,9.322z"/>
<path d="M38.1,2.825l0.088,1.047c0.254-0.381,0.572-0.675,0.956-0.882c0.383-0.208,0.826-0.312,1.329-0.312
	c0.508,0,0.942,0.112,1.303,0.337s0.635,0.564,0.82,1.018c0.244-0.425,0.563-0.757,0.953-0.996s0.85-0.359,1.377-0.359
	c0.781,0,1.396,0.27,1.848,0.81c0.453,0.54,0.678,1.361,0.678,2.464v4.797h-2.139V5.935c0-0.602-0.098-1.021-0.293-1.255
	s-0.484-0.353-0.871-0.353c-0.303,0-0.564,0.067-0.787,0.202c-0.223,0.135-0.398,0.322-0.531,0.562c0,0.093,0.002,0.172,0.008,0.238
	c0.004,0.066,0.008,0.133,0.008,0.202v5.219h-2.132V5.935c0-0.587-0.098-1.002-0.293-1.245s-0.488-0.363-0.879-0.363
	c-0.287,0-0.541,0.055-0.758,0.165c-0.217,0.11-0.396,0.266-0.538,0.466v5.792h-2.132V2.825H38.1z"/>
<path d="M57.141,7.007c0,1.172-0.27,2.114-0.813,2.827c-0.541,0.713-1.299,1.069-2.27,1.069c-0.416,0-0.785-0.077-1.107-0.231
	c-0.322-0.153-0.598-0.379-0.826-0.677v3.801h-2.133V2.825h1.928l0.123,0.938c0.234-0.347,0.518-0.614,0.846-0.802
	c0.33-0.188,0.715-0.282,1.154-0.282c0.982,0,1.744,0.383,2.285,1.15c0.543,0.767,0.813,1.775,0.813,3.025V7.007z M55.002,6.843
	c0-0.749-0.123-1.354-0.373-1.819C54.381,4.559,54,4.327,53.487,4.327c-0.322,0-0.598,0.066-0.824,0.198
	c-0.227,0.132-0.406,0.32-0.537,0.564v3.477c0.131,0.225,0.311,0.396,0.537,0.514c0.227,0.117,0.508,0.176,0.84,0.176
	c0.518,0,0.896-0.203,1.139-0.609c0.24-0.406,0.361-0.956,0.361-1.65V6.843z"/>
<path d="M74.03,4.664l-0.783-0.022c-0.318,0-0.58,0.066-0.785,0.198S72.1,5.157,71.993,5.396v5.354h-2.131V2.825h1.984l0.096,1.172
	c0.186-0.415,0.426-0.738,0.723-0.971c0.295-0.231,0.635-0.348,1.021-0.348c0.107,0,0.205,0.009,0.297,0.025
	c0.09,0.018,0.182,0.038,0.273,0.063L74.03,4.664z"/>
<path d="M78.752,0.884v1.941h1.334v1.501h-1.334v4.036c0,0.308,0.064,0.527,0.191,0.659s0.297,0.198,0.512,0.198
	c0.113,0,0.209-0.006,0.289-0.018s0.176-0.033,0.283-0.063l0.182,1.545c-0.215,0.073-0.424,0.128-0.629,0.165
	c-0.205,0.037-0.428,0.055-0.666,0.055c-0.738,0-1.307-0.203-1.703-0.608c-0.398-0.405-0.598-1.047-0.598-1.926V4.327h-1.156V2.825
	h1.156V0.884H78.752z"/>
<path fill-rule="evenodd" clip-rule="evenodd" fill="#BE2026" d="M3.917,0.259C3.847,0.102,3.687,0,3.513,0S3.18,0.102,3.109,0.259
	C1.988,2.696,0,5.834,0,7.54c0,1.941,1.572,3.513,3.513,3.513S7.025,9.48,7.025,7.54C7.026,5.834,5.038,2.696,3.917,0.259z"/>
<polygon points="64.487,0.086 62.297,0.086 58.627,10.75 60.788,10.75 61.493,8.519 62.042,6.773 62.042,6.773 62.288,5.994 
	62.293,5.975 62.293,5.975 63.366,2.583 63.411,2.583 64.729,6.773 64.729,6.773 65.432,9.009 65.981,10.75 68.141,10.75 "/>
</svg>
