<?xml version="1.0" encoding="utf-8"?>
<!-- Generator: Adobe Illustrator 16.0.0, SVG Export Plug-In . SVG Version: 6.00 Build 0)  -->
<!DOCTYPE svg PUBLIC "-//W3C//DTD SVG 1.1//EN" "http://www.w3.org/Graphics/SVG/1.1/DTD/svg11.dtd">
<svg version="1.1" id="Layer_1" xmlns="http://www.w3.org/2000/svg" xmlns:xlink="http://www.w3.org/1999/xlink" x="0px" y="0px"
	 width="29px" height="58.37px" viewBox="0 0 29 58.37" enable-background="new 0 0 29 58.37" xml:space="preserve">
<path fill-rule="evenodd" clip-rule="evenodd" fill="#FFFFFF" d="M15.162,40.788c-0.118-0.256-0.378-0.422-0.662-0.422
	c-0.281,0-0.541,0.166-0.657,0.422c-1.825,3.971-5.063,9.082-5.063,11.86c0,3.161,2.562,5.722,5.721,5.722
	c3.163,0,5.721-2.561,5.721-5.722C20.225,49.87,16.986,44.759,15.162,40.788z"/>
<g>
	<polyline fill="#FFFFFF" points="16.5,20.083 16.5,3.083 12.5,3.083 12.5,20.083 	"/>
</g>
<g>
	<polyline fill="#FFFFFF" points="0,32.083 29,32.083 29,27.083 0,27.083 	"/>
</g>
<g>
	<polygon fill="#FFFFFF" points="22.237,7.864 14.604,0.231 6.763,8.073 9.591,10.901 14.604,5.888 19.409,10.692 	"/>
</g>
</svg>
